<svg class="{{ with .class }}{{ . }} {{ end }}icon icon-word-count" viewBox="0 0 1024 1024" width="16" height="16"><path d="M682.666667 0H256a256 256 0 0 0-256 256v512a256 256 0 0 0 256 256h426.666667a256 256 0 0 0 256-256V256a256 256 0 0 0-256-256z m170.666666 768a170.666667 170.666667 0 0 1-170.666666 170.666667H256a170.666667 170.666667 0 0 1-170.666667-170.666667V256a170.666667 170.666667 0 0 1 170.666667-170.666667h426.666667a170.666667 170.666667 0 0 1 170.666666 170.666667z" p-id="5028" fill="#8a8a8a"></path><path d="M646.826667 256H291.84a39.253333 39.253333 0 0 0-35.84 42.666667v85.333333a42.666667 42.666667 0 0 0 85.333333 0V341.333333h85.333334v341.333334h-42.666667a42.666667 42.666667 0 0 0 0 85.333333h170.666667a42.666667 42.666667 0 0 0 0-85.333333H512V341.333333h85.333333v42.666667a42.666667 42.666667 0 0 0 85.333334 0v-85.333333a39.253333 39.253333 0 0 0-35.84-42.666667z" p-id="5029" fill="#8a8a8a"></path></svg>